#N canvas 37 173 754 361 12;
#X obj 55 129 +~;
#X obj 55 157 +~;
#X obj 53 240 dac~;
#X msg 175 179 \; pd dsp 1;
#X msg 262 179 \; pd dsp 0;
#X obj 54 194 *~ 0.05;
#X obj 32 96 osc~;
#X obj 103 97 osc~;
#X obj 172 96 osc~;
#X msg 32 49 440;
#X msg 103 49 528;
#X msg 172 49 660;
#X text 265 20 Basic Aminor chord patch. A = 440Hz C = 528Hz E = 660Hz
Freq ratio (A-C): 6:5 Freq ratio (A-E): 3:2;
#X connect 0 0 1 0;
#X connect 1 0 5 0;
#X connect 5 0 2 0;
#X connect 5 0 2 1;
#X connect 6 0 0 0;
#X connect 7 0 0 1;
#X connect 8 0 1 1;
#X connect 9 0 6 0;
#X connect 10 0 7 0;
#X connect 11 0 8 0;
