#N canvas 814 99 459 513 12;
#X text 84 15 This patch produces a power chord from any particular
pitch using additive synthesis.;
#X floatatom 23 101 5 0 0 0 - - -;
#X obj 23 136 mtof;
#X text 70 101 <-- select a pitch;
#X obj 23 215 osc~;
#X obj 89 216 osc~;
#X obj 160 215 osc~;
#X obj 89 185 * 1.5;
#X obj 160 186 * 2;
#X obj 23 315 +~;
#X obj 22 348 +~;
#X obj 22 398 dac~;
#X msg 137 386 \; pd dsp 1;
#X msg 232 385 \; pd dsp 0;
#X text 205 185 harmonic frequency multiplier;
#X text 232 242 amplitude of harmonics;
#X floatatom 113 243 5 0 0 0 - - -;
#X floatatom 182 244 5 0 0 0 - - -;
#X obj 88 276 *~;
#X obj 160 274 *~;
#X msg 23 74 60;
#X text 63 74 <-- reset pitch to middle C;
#X connect 1 0 2 0;
#X connect 2 0 4 0;
#X connect 2 0 7 0;
#X connect 2 0 8 0;
#X connect 4 0 9 0;
#X connect 5 0 18 0;
#X connect 6 0 19 0;
#X connect 7 0 5 0;
#X connect 8 0 6 0;
#X connect 9 0 10 0;
#X connect 10 0 11 0;
#X connect 10 0 11 1;
#X connect 16 0 18 1;
#X connect 17 0 19 1;
#X connect 18 0 9 1;
#X connect 19 0 10 1;
#X connect 20 0 1 0;
